<svg xmlns="http://www.w3.org/2000/svg" viewBox="0 0 16 16">
  <path fill="currentColor" fill-rule="evenodd"
        d="M8 0C3.588 0 0 3.588 0 8c0 3.538 2.294 6.523 5.474 7.617.4.073.547-.174.547-.389 0-.191-.007-.698-.011-1.369-2.221.484-2.692-1.056-2.692-1.056-.364-.924-.889-1.172-.889-1.172-.726-.497.055-.487.055-.487.803.056 1.224.82 1.224.82.715 1.224 1.875.87 2.335.663.071-.516.28-.87.508-1.067-1.777-.202-3.642-.89-3.642-3.96 0-.872.312-1.586.822-2.144-.083-.202-.356-1.012.077-2.105 0 0 .672-.214 2.2.821a7.523 7.523 0 012.004-.267c.682 0 1.364.091 2.004.267 1.527-1.035 2.2-.821 2.2-.821.434 1.093.162 1.903.08 2.105.516.558.822 1.271.822 2.144 0 3.079-1.866 3.756-3.646 3.956.288.25.545.75.545 1.512 0 1.096-.01 1.978-.01 2.249 0 .216.146.467.554.388C13.706 14.523 16 11.538 16 8c0-4.412-3.588-8-8-8z"/>
</svg>